<svg width="302" height="302" xmlns="http://www.w3.org/2000/svg"><clipPath id="a"><path d="M0 164.41h249.45V0H0v164.41z"/></clipPath><path fill="#e5e5e5" d="M-1-1h304v304H-1z"/><g clip-path="url(#a)" fill="#1d1d1b" transform="matrix(1.33333 0 0 -1.33333 0 219.213)"><path d="M35.705 59.024h-8.561V41.185h8.56v17.84zm7.063-19.485c0-2.913-1.426-4.37-4.28-4.37H27.145V18.2H20.14v46.84h18.348c2.853 0 4.279-1.437 4.279-4.31V39.54zM139.28 58.73h-8.56V40.892h8.56V58.73zm7.063-19.485c0-2.913-1.427-4.37-4.28-4.37H130.72v-16.97h-7.004v46.841h18.348c2.852 0 4.279-1.437 4.279-4.31v-21.19zM58.039 25.393v8.111h-6.555v-8.35l6.555.24zm6.495-5.447h-6.555v1.048l-4.67-.719c-2.034-.299-3.581-.449-4.638-.449-2.494 0-3.741 1.227-3.741 3.681v10.895c0 2.495 1.286 3.742 3.86 3.742h9.249v6.943h-6.555v-4.309h-6.195v5.657c0 2.494 1.287 3.741 3.86 3.741h11.584c2.534 0 3.8-1.247 3.8-3.74v-26.49zm38.252 0h-6.794V44.46l-6.435-.12V19.946h-6.825V44.46l-6.435-.12V19.946h-6.853v30.23h6.854V49.07l4.76.778c1.935.3 3.54.45 4.818.45 1.576 0 2.594-.45 3.053-1.348 1.676.26 3.352.53 5.028.808 2.215.36 3.91.54 5.088.54 2.495 0 3.742-1.228 3.742-3.683l-.001-26.669zm58.828 5.24v8.111h-6.556v-8.35l6.556.24zm6.495-5.447h-6.556v1.048l-4.668-.719c-2.036-.299-3.583-.449-4.64-.449-2.494 0-3.741 1.227-3.741 3.681v10.896c0 2.494 1.287 3.741 3.86 3.741h9.25v6.943h-6.556v-4.309h-6.195v5.657c0 2.494 1.287 3.741 3.86 3.741h11.584c2.535 0 3.802-1.247 3.802-3.74V19.74zm38.25.001h-6.793v24.513l-6.435-.12V19.74h-6.825v24.514l-6.434-.12V19.74h-6.855v30.23h6.855v-1.107l4.759.778c1.935.3 3.542.45 4.818.45 1.577 0 2.595-.45 3.054-1.348 1.675.26 3.35.53 5.028.808 2.215.36 3.91.54 5.088.54 2.494 0 3.74-1.228 3.74-3.683V19.74zM57.47 65.681c.173 0 .38.026.623.08.622.137.967.44 1.036.905l.13.83c.31 1.606.466 2.746.466 3.42 0 .293-.035.44-.103.44-.155 0-.735-1.009-1.736-3.03-.623-1.296-.934-2.109-.934-2.437 0-.138.174-.208.52-.208m4.585-9.845c-.38 0-.743.173-1.088.518-.57.622-.98 1.412-1.23 2.371a23.568 23.568 0 00-.558 2.76 15.094 15.094 0 01-.324 1.593c-.112.405-.263.61-.453.61-.812 0-1.477-.087-1.995-.26-.52-.173-.864-.63-1.036-1.373a7.972 7.972 0 01-.13-.959c-.19-1.416-.39-2.193-.596-2.332a.758.758 0 00-.467-.155c-.26 0-.544.113-.854.336-.587.397-.88.89-.88 1.476 0 .278.063.588.193.934.13.345.194.605.194.778 0 .19-.094.284-.285.284-.156 0-.484-.108-.984-.323-.502-.218-.82-.324-.96-.324-.258 0-.513.151-.764.453a1.567 1.567 0 00-.375 1.023c0 .397.22.704.66.92.44.215 1.015.393 1.724.532 1.21.258 2.02.578 2.435.96l5.44 11.372c.468.916 1.158 1.374 2.074 1.374.328 0 .674-.053 1.036-.156.605-.207.908-.517.908-.932 0-.363-.087-.813-.26-1.347-1.347-4.976-2.02-9-2.02-12.074 0-3.196.405-5.477 1.217-6.84.173-.277.26-.476.26-.597 0-.138-.096-.276-.286-.415a1 1 0 00-.596-.207"/><path d="M67.654 56.587a.907.907 0 00-.416.104c-.743.33-1.235.812-1.477 1.451-.415 1.105-.622 2.841-.622 5.207 0 2.713.364 6.03 1.09 9.95.033.242.05.423.05.545 0 .155-.07.232-.207.232-.276 0-.596-.077-.958-.232-.467-.19-1.098-.286-1.892-.286-.328 0-.682.311-1.062.933-.155.26-.234.501-.234.726 0 .432.347.691 1.037.778l3.342.44c.398.051.665.32.804.802l1.76 6.168c.192.673.528 1.01 1.012 1.01.155 0 .336-.035.544-.104.674-.259 1.01-.64 1.01-1.14 0-.172-.042-.38-.13-.622-.327-.88-.75-2.134-1.27-3.757-.31-.95-.465-1.494-.465-1.63.017-.295.26-.442.725-.442l1.426.026c.327 0 .707-.026 1.14-.078.432-.053.933-.26 1.502-.623.57-.362.864-.75.882-1.166 0-.173-.044-.354-.13-.543-.14-.26-.31-.389-.52-.389-.206 0-.44.07-.697.207-.45.224-1.184.337-2.203.337-1.745 0-2.678-.137-2.798-.415a2.47 2.47 0 01-.182-.518 50.463 50.463 0 01-1.192-10.986c0-1.347.078-2.45.234-3.317.103-.57.344-1.13.725-1.683.087-.12.13-.224.13-.31a.594.594 0 00-.13-.339c-.173-.207-.45-.318-.83-.336"/><path d="M72.446 65.216c.45.31.88.854 1.295 1.633.622 1.14.933 1.847.933 2.125 0 .137-.086.207-.26.207a.344.344 0 01-.284-.13c-1.295-2.21-1.943-3.404-1.943-3.575 0-.14.086-.225.26-.26m.983-5.44c-2.625 0-3.938 1.217-3.938 3.652 0 .224.048.735.142 1.53.095.794.462 1.83 1.1 3.108 1.159 2.28 2.394 3.42 3.707 3.42 1.07 0 1.882-.535 2.435-1.606.173-.33.26-.675.26-1.037 0-.45-.13-.916-.39-1.4-1.485-2.192-2.884-3.6-4.196-4.222-.467-.224-.7-.458-.7-.7 0-.104.017-.206.05-.31.157-.553.468-.829.935-.829.69 0 1.614.423 2.77 1.27.76.551 1.306.975 1.634 1.27.415.412.743.62.985.62.12 0 .242-.043.363-.129a.845.845 0 00.284-.65c0-.275-.176-.68-.53-1.215-.354-.536-.934-1.107-1.737-1.71-.804-.605-1.524-.942-2.163-1.01-.363-.036-.7-.053-1.01-.053"/><path d="M81.462 58.323c-1.313 0-2.16.63-2.54 1.893-.241.76-.362 1.683-.362 2.771 0 1.83.367 4.141 1.102 6.932.734 2.79 1.464 5.574 2.19 8.356.17.656.526.984 1.06.984.157 0 .329-.034.519-.104.415-.156.622-.439.622-.854a2.68 2.68 0 00-.103-.675c-2.022-7.739-3.032-12.99-3.032-15.753 0-1.295.233-1.943.7-1.943.604 0 1.874.906 3.81 2.72.015 0 .024.008.024.027.19.172.39.267.596.284a.554.554 0 00.363-.156.493.493 0 00.182-.388c0-.173-.062-.363-.182-.57-1.382-2.348-3.03-3.524-4.95-3.524"/><path d="M88.666 69.672l-.363.026c-.484.103-.743.423-.778.958v.518c0 .623.277 1.623.83 3.006l.129.363c.138.328.398.502.777.518.174 0 .346-.035.519-.103.587-.26.889-.57.907-.932 0-.38-.441-1.66-1.322-3.836-.155-.345-.388-.518-.7-.518m-.828-10.44h-.078c-.881 0-1.356.595-1.426 1.785a29.656 29.656 0 00-.051 1.712c0 2.088.208 4.023.622 5.803.12.501.45.751.985.751.932 0 1.399-.372 1.399-1.113 0-.208-.018-.399-.052-.57a45.334 45.334 0 01-.803-6.686c0-.19.02-.362.064-.517.044-.157.065-.32.065-.494 0-.137-.013-.275-.04-.414-.025-.137-.253-.224-.685-.258m5.337 5.985c.449.31.88.854 1.296 1.633.62 1.14.933 1.847.933 2.125 0 .137-.087.207-.26.207a.342.342 0 01-.284-.13c-1.296-2.21-1.944-3.404-1.944-3.575 0-.14.086-.225.259-.26m.985-5.44c-2.626 0-3.94 1.217-3.94 3.652 0 .224.049.735.144 1.53.095.794.46 1.83 1.1 3.108 1.158 2.28 2.393 3.42 3.706 3.42 1.07 0 1.882-.535 2.435-1.606.174-.33.26-.675.26-1.037 0-.45-.13-.916-.39-1.4-1.485-2.192-2.884-3.6-4.196-4.222-.466-.224-.7-.458-.7-.7a.97.97 0 01.052-.31c.155-.553.467-.829.933-.829.69 0 1.615.423 2.772 1.27.76.551 1.304.975 1.633 1.27.414.412.742.62.984.62.12 0 .242-.043.363-.129a.842.842 0 00.285-.65c0-.275-.177-.68-.531-1.215-.354-.536-.933-1.107-1.736-1.71-.804-.605-1.525-.942-2.164-1.01a10.551 10.551 0 00-1.01-.053"/><path d="M100.869 59.93c-.5 0-.933.165-1.295.491-.19.192-.286.45-.286.778.397 3.523.778 6.435 1.14 8.733.087.483.346.725.777.725 1.055 0 1.58-.476 1.58-1.426 0-.173-.042-.405-.128-.698a3.648 3.648 0 01-.156-.985c0-.26.035-.389.104-.389.052 0 .112.068.18.208.38.83 1.09 1.467 2.126 1.917.328.155.656.233.984.233.294 0 .536-.155.726-.467.104-.155.155-.294.155-.415 0-.207-.198-.405-.595-.596a1.499 1.499 0 01-.26-.155c-2.055-1.573-3.403-3.818-4.042-6.736-.19-.81-.527-1.218-1.01-1.218"/></g></svg>