<?xml version="1.0" encoding="UTF-8" standalone="no"?>
<svg
   xmlns:dc="http://purl.org/dc/elements/1.1/"
   xmlns:cc="http://creativecommons.org/ns#"
   xmlns:rdf="http://www.w3.org/1999/02/22-rdf-syntax-ns#"
   xmlns:svg="http://www.w3.org/2000/svg"
   xmlns="http://www.w3.org/2000/svg"
   viewBox="0 0 332.60001 219.21333"
   height="219.21333"
   width="332.60001"
   xml:space="preserve"
   id="svg2"
   version="1.1"><metadata
     id="metadata8"><rdf:RDF><cc:Work
         rdf:about=""><dc:format>image/svg+xml</dc:format><dc:type
           rdf:resource="http://purl.org/dc/dcmitype/StillImage" /></cc:Work></rdf:RDF></metadata><defs
     id="defs6"><clipPath
       id="clipPath18"
       clipPathUnits="userSpaceOnUse"><path
         id="path16"
         d="M 0,164.41 H 249.45 V 0 H 0 Z" /></clipPath></defs><g
     transform="matrix(1.3333333,0,0,-1.3333333,0,219.21333)"
     id="g10"><g
       id="g12"><g
         clip-path="url(#clipPath18)"
         id="g14"><path
           id="path20"
           style="fill:#1d1d1b;fill-opacity:1;fill-rule:nonzero;stroke:none"
           d="M 49.021,95.484 H 40.46 V 77.645 h 8.561 z m 7.063,-19.485 c 0,-2.913 -1.426,-4.37 -4.279,-4.37 H 40.46 V 54.658 H 33.457 V 101.5 h 18.348 c 2.853,0 4.279,-1.437 4.279,-4.31 z" /><path
           id="path22"
           style="fill:#1d1d1b;fill-opacity:1;fill-rule:nonzero;stroke:none"
           d="m 152.596,95.19 h -8.56 V 77.352 h 8.56 z m 7.063,-19.485 c 0,-2.913 -1.427,-4.37 -4.279,-4.37 H 144.036 V 54.364 h -7.004 v 46.842 h 18.348 c 2.852,0 4.279,-1.437 4.279,-4.31 z" /><g
           transform="translate(71.355,61.8534)"
           id="g24"><path
             id="path26"
             style="fill:#1d1d1b;fill-opacity:1;fill-rule:nonzero;stroke:none"
             d="m 0,0 v 8.111 h -6.555 v -8.35 z M 6.495,-5.447 H -0.06 v 1.048 c -1.556,-0.241 -3.112,-0.48 -4.669,-0.719 -2.035,-0.299 -3.582,-0.449 -4.639,-0.449 -2.494,0 -3.741,1.227 -3.741,3.681 V 9.009 c 0,2.495 1.286,3.742 3.86,3.742 H 0 v 6.943 h -6.555 v -4.309 h -6.195 v 5.657 c 0,2.494 1.287,3.741 3.861,3.741 H 2.694 c 2.534,0 3.801,-1.247 3.801,-3.741 z" /></g><g
           transform="translate(116.1021,56.4061)"
           id="g28"><path
             id="path30"
             style="fill:#1d1d1b;fill-opacity:1;fill-rule:nonzero;stroke:none"
             d="m 0,0 h -6.794 v 24.514 l -6.435,-0.12 V 0 h -6.825 v 24.514 l -6.435,-0.12 V 0 h -6.854 v 30.23 h 6.854 v -1.107 c 1.596,0.259 3.183,0.519 4.759,0.778 1.936,0.299 3.542,0.449 4.819,0.449 1.576,0 2.594,-0.449 3.053,-1.347 1.676,0.259 3.352,0.529 5.028,0.808 2.215,0.359 3.911,0.539 5.088,0.539 C -1.247,30.35 0,29.123 0,26.668 Z" /></g><g
           transform="translate(174.9297,61.6463)"
           id="g32"><path
             id="path34"
             style="fill:#1d1d1b;fill-opacity:1;fill-rule:nonzero;stroke:none"
             d="m 0,0 v 8.111 h -6.556 v -8.35 z m 6.495,-5.447 h -6.556 v 1.048 c -1.555,-0.241 -3.112,-0.48 -4.668,-0.719 -2.036,-0.299 -3.583,-0.449 -4.64,-0.449 -2.494,0 -3.741,1.227 -3.741,3.681 V 9.01 c 0,2.494 1.287,3.741 3.861,3.741 H 0 v 6.943 h -6.556 v -4.309 h -6.195 v 5.657 c 0,2.494 1.287,3.741 3.861,3.741 H 2.693 c 2.535,0 3.802,-1.247 3.802,-3.741 z" /></g><g
           transform="translate(219.6758,56.1991)"
           id="g36"><path
             id="path38"
             style="fill:#1d1d1b;fill-opacity:1;fill-rule:nonzero;stroke:none"
             d="m 0,0 h -6.794 v 24.514 l -6.435,-0.12 V 0 h -6.825 v 24.514 l -6.434,-0.12 V 0 h -6.855 v 30.23 h 6.855 v -1.107 c 1.595,0.259 3.182,0.519 4.759,0.778 1.935,0.299 3.542,0.449 4.818,0.449 1.577,0 2.595,-0.449 3.054,-1.347 1.675,0.259 3.351,0.529 5.028,0.808 2.215,0.359 3.91,0.539 5.088,0.539 C -1.247,30.35 0,29.123 0,26.668 Z" /></g><g
           transform="translate(70.7861,102.141)"
           id="g40"><path
             id="path42"
             style="fill:#1d1d1b;fill-opacity:1;fill-rule:nonzero;stroke:none"
             d="M 0,0 C 0.172,0 0.38,0.026 0.622,0.079 1.244,0.217 1.589,0.52 1.658,0.985 l 0.13,0.829 c 0.31,1.607 0.466,2.747 0.466,3.421 0,0.293 -0.035,0.44 -0.103,0.44 C 1.996,5.675 1.416,4.666 0.415,2.644 -0.208,1.349 -0.519,0.536 -0.519,0.208 -0.519,0.07 -0.345,0 0,0 m 4.586,-9.845 c -0.38,0 -0.743,0.173 -1.088,0.518 -0.57,0.622 -0.981,1.412 -1.23,2.371 -0.251,0.958 -0.437,1.879 -0.558,2.76 -0.104,0.656 -0.212,1.187 -0.324,1.593 -0.112,0.405 -0.263,0.609 -0.453,0.609 -0.812,0 -1.477,-0.086 -1.995,-0.259 -0.519,-0.173 -0.864,-0.631 -1.036,-1.373 -0.052,-0.242 -0.096,-0.562 -0.13,-0.959 -0.19,-1.416 -0.389,-2.193 -0.596,-2.332 -0.139,-0.104 -0.294,-0.155 -0.467,-0.155 -0.259,0 -0.544,0.113 -0.854,0.336 -0.587,0.397 -0.881,0.89 -0.881,1.476 0,0.278 0.064,0.588 0.194,0.934 0.129,0.345 0.194,0.605 0.194,0.778 0,0.189 -0.094,0.284 -0.285,0.284 -0.156,0 -0.484,-0.108 -0.984,-0.323 -0.502,-0.218 -0.821,-0.324 -0.96,-0.324 -0.258,0 -0.513,0.151 -0.764,0.453 -0.249,0.302 -0.375,0.643 -0.375,1.023 0,0.397 0.22,0.704 0.66,0.92 0.441,0.215 1.015,0.393 1.724,0.532 1.209,0.258 2.02,0.578 2.435,0.959 l 5.441,11.373 c 0.467,0.916 1.157,1.374 2.073,1.374 0.328,0 0.674,-0.053 1.036,-0.156 0.605,-0.207 0.908,-0.517 0.908,-0.932 0,-0.363 -0.087,-0.813 -0.26,-1.347 C 4.664,5.312 3.99,1.287 3.99,-1.786 c 0,-3.196 0.406,-5.477 1.218,-6.84 0.173,-0.277 0.259,-0.476 0.259,-0.597 0,-0.138 -0.095,-0.276 -0.285,-0.415 -0.19,-0.138 -0.389,-0.207 -0.596,-0.207" /></g><g
           transform="translate(80.9692,93.0472)"
           id="g44"><path
             id="path46"
             style="fill:#1d1d1b;fill-opacity:1;fill-rule:nonzero;stroke:none"
             d="m 0,0 c -0.139,0 -0.277,0.034 -0.415,0.104 -0.743,0.329 -1.235,0.812 -1.477,1.451 -0.415,1.105 -0.622,2.841 -0.622,5.207 0,2.713 0.364,6.029 1.089,9.95 0.034,0.242 0.052,0.423 0.052,0.545 0,0.155 -0.07,0.232 -0.208,0.232 -0.276,0 -0.596,-0.077 -0.958,-0.232 -0.467,-0.191 -1.098,-0.286 -1.892,-0.286 -0.328,0 -0.682,0.311 -1.062,0.933 -0.155,0.26 -0.234,0.501 -0.234,0.726 0,0.432 0.347,0.691 1.037,0.778 l 3.342,0.439 c 0.398,0.052 0.665,0.32 0.804,0.803 l 1.761,6.168 c 0.191,0.673 0.527,1.009 1.011,1.009 0.155,0 0.336,-0.034 0.544,-0.103 0.674,-0.259 1.011,-0.64 1.011,-1.14 0,-0.172 -0.043,-0.38 -0.13,-0.622 C 3.325,25.081 2.902,23.828 2.383,22.205 2.072,21.254 1.917,20.711 1.917,20.574 1.934,20.28 2.176,20.133 2.642,20.133 l 1.426,0.026 c 0.327,0 0.707,-0.026 1.14,-0.078 0.432,-0.053 0.933,-0.26 1.502,-0.623 0.571,-0.362 0.864,-0.751 0.882,-1.166 0,-0.173 -0.044,-0.354 -0.13,-0.543 -0.139,-0.26 -0.311,-0.389 -0.519,-0.389 -0.207,0 -0.44,0.069 -0.698,0.207 -0.451,0.224 -1.184,0.337 -2.203,0.337 -1.745,0 -2.678,-0.137 -2.798,-0.415 C 1.174,17.352 1.114,17.179 1.062,16.971 0.267,13.395 -0.13,9.734 -0.13,5.985 -0.13,4.638 -0.052,3.534 0.104,2.668 0.207,2.098 0.448,1.538 0.829,0.985 0.916,0.864 0.958,0.761 0.958,0.674 0.958,0.57 0.916,0.459 0.829,0.336 0.656,0.129 0.38,0.018 0,0" /></g><g
           transform="translate(85.7622,101.6756)"
           id="g48"><path
             id="path50"
             style="fill:#1d1d1b;fill-opacity:1;fill-rule:nonzero;stroke:none"
             d="M 0,0 C 0.449,0.311 0.881,0.854 1.295,1.633 1.917,2.773 2.228,3.48 2.228,3.758 2.228,3.895 2.142,3.965 1.969,3.965 1.848,3.965 1.753,3.921 1.684,3.834 0.389,1.624 -0.259,0.431 -0.259,0.26 -0.259,0.121 -0.173,0.035 0,0 m 0.984,-5.441 c -2.625,0 -3.938,1.218 -3.938,3.653 0,0.224 0.048,0.735 0.142,1.529 0.095,0.795 0.462,1.83 1.101,3.109 1.158,2.281 2.393,3.421 3.706,3.421 1.07,0 1.882,-0.536 2.435,-1.607 C 4.603,4.335 4.689,3.989 4.689,3.627 4.689,3.178 4.56,2.711 4.301,2.228 2.815,0.035 1.416,-1.373 0.104,-1.995 c -0.467,-0.224 -0.7,-0.458 -0.7,-0.699 0,-0.105 0.017,-0.207 0.051,-0.312 0.156,-0.552 0.467,-0.828 0.934,-0.828 0.69,0 1.614,0.423 2.771,1.269 0.76,0.552 1.305,0.976 1.633,1.27 0.415,0.413 0.743,0.621 0.985,0.621 0.12,0 0.242,-0.043 0.363,-0.129 0.189,-0.174 0.284,-0.389 0.284,-0.649 0,-0.276 -0.176,-0.682 -0.531,-1.216 C 5.541,-3.204 4.961,-3.775 4.158,-4.379 3.354,-4.983 2.634,-5.32 1.995,-5.389 1.632,-5.424 1.295,-5.441 0.984,-5.441" /></g><g
           transform="translate(94.7783,94.7831)"
           id="g52"><path
             id="path54"
             style="fill:#1d1d1b;fill-opacity:1;fill-rule:nonzero;stroke:none"
             d="m 0,0 c -1.313,0 -2.16,0.63 -2.539,1.893 -0.242,0.759 -0.363,1.683 -0.363,2.771 0,1.83 0.367,4.141 1.102,6.932 0.734,2.789 1.464,5.574 2.189,8.356 0.172,0.656 0.527,0.984 1.062,0.984 0.156,0 0.328,-0.034 0.518,-0.104 0.415,-0.156 0.622,-0.439 0.622,-0.854 0,-0.191 -0.034,-0.415 -0.103,-0.675 C 0.466,11.564 -0.544,6.313 -0.544,3.55 c 0,-1.295 0.233,-1.943 0.7,-1.943 0.604,0 1.874,0.906 3.809,2.72 0.016,0 0.025,0.008 0.025,0.027 0.19,0.172 0.389,0.267 0.596,0.284 0.121,0 0.242,-0.051 0.363,-0.156 C 5.069,4.379 5.131,4.249 5.131,4.094 5.131,3.921 5.069,3.731 4.949,3.524 3.567,1.176 1.918,0 0,0" /></g><g
           transform="translate(101.9819,106.1322)"
           id="g56"><path
             id="path58"
             style="fill:#1d1d1b;fill-opacity:1;fill-rule:nonzero;stroke:none"
             d="m 0,0 -0.363,0.026 c -0.484,0.103 -0.743,0.423 -0.778,0.958 v 0.518 c 0,0.623 0.277,1.623 0.83,3.006 l 0.129,0.363 c 0.138,0.328 0.398,0.502 0.777,0.518 0.174,0 0.346,-0.035 0.519,-0.103 C 1.701,5.026 2.003,4.716 2.021,4.354 2.021,3.973 1.58,2.694 0.699,0.518 0.544,0.173 0.311,0 0,0 m -0.829,-10.441 h -0.078 c -0.881,0 -1.356,0.596 -1.426,1.786 -0.034,0.588 -0.051,1.158 -0.051,1.712 0,2.088 0.208,4.023 0.622,5.803 0.12,0.501 0.45,0.751 0.985,0.751 0.932,0 1.399,-0.372 1.399,-1.113 0,-0.208 -0.018,-0.399 -0.052,-0.57 -0.432,-2.195 -0.699,-4.422 -0.803,-6.686 0,-0.191 0.021,-0.362 0.064,-0.517 0.044,-0.157 0.065,-0.32 0.065,-0.494 0,-0.137 -0.013,-0.275 -0.039,-0.414 -0.026,-0.137 -0.254,-0.224 -0.686,-0.258" /></g><g
           transform="translate(106.4897,101.6756)"
           id="g60"><path
             id="path62"
             style="fill:#1d1d1b;fill-opacity:1;fill-rule:nonzero;stroke:none"
             d="M 0,0 C 0.449,0.311 0.881,0.854 1.296,1.633 1.917,2.773 2.229,3.48 2.229,3.758 2.229,3.895 2.142,3.965 1.97,3.965 1.848,3.965 1.753,3.921 1.685,3.834 0.389,1.624 -0.259,0.431 -0.259,0.26 -0.259,0.121 -0.173,0.035 0,0 m 0.985,-5.441 c -2.626,0 -3.939,1.218 -3.939,3.653 0,0.224 0.048,0.735 0.143,1.529 0.095,0.795 0.461,1.83 1.101,3.109 1.157,2.281 2.392,3.421 3.705,3.421 1.071,0 1.882,-0.536 2.435,-1.607 C 4.604,4.335 4.69,3.989 4.69,3.627 4.69,3.178 4.56,2.711 4.301,2.228 2.815,0.035 1.416,-1.373 0.104,-1.995 c -0.466,-0.224 -0.7,-0.458 -0.7,-0.699 0,-0.105 0.017,-0.207 0.052,-0.312 0.155,-0.552 0.467,-0.828 0.933,-0.828 0.691,0 1.615,0.423 2.772,1.269 0.76,0.552 1.304,0.976 1.633,1.27 0.414,0.413 0.742,0.621 0.984,0.621 0.12,0 0.242,-0.043 0.363,-0.129 0.19,-0.174 0.285,-0.389 0.285,-0.649 0,-0.276 -0.177,-0.682 -0.531,-1.216 C 5.541,-3.204 4.962,-3.775 4.159,-4.379 3.355,-4.983 2.634,-5.32 1.995,-5.389 1.632,-5.424 1.296,-5.441 0.985,-5.441" /></g><g
           transform="translate(114.1851,96.39)"
           id="g64"><path
             id="path66"
             style="fill:#1d1d1b;fill-opacity:1;fill-rule:nonzero;stroke:none"
             d="m 0,0 c -0.501,0 -0.933,0.165 -1.295,0.491 -0.191,0.192 -0.286,0.449 -0.286,0.778 0.397,3.523 0.778,6.435 1.14,8.733 0.087,0.483 0.346,0.725 0.777,0.725 1.055,0 1.581,-0.476 1.581,-1.426 C 1.917,9.128 1.874,8.896 1.788,8.603 1.685,8.24 1.632,7.912 1.632,7.618 c 0,-0.26 0.035,-0.389 0.104,-0.389 0.052,0 0.112,0.068 0.181,0.208 0.38,0.829 1.089,1.467 2.125,1.917 C 4.37,9.509 4.698,9.587 5.026,9.587 5.32,9.587 5.562,9.432 5.752,9.12 5.856,8.965 5.907,8.826 5.907,8.705 5.907,8.498 5.709,8.3 5.312,8.109 5.208,8.059 5.121,8.006 5.053,7.954 2.997,6.381 1.649,4.136 1.01,1.218 0.82,0.407 0.483,0 0,0" /></g></g></g><path
       id="path68"
       style="fill:none;stroke:#1d1d1b;stroke-width:0.25;stroke-linecap:butt;stroke-linejoin:miter;stroke-miterlimit:10;stroke-dasharray:none;stroke-opacity:1"
       d="M 245.197,4.252 H 4.252 v 155.906 h 240.945 z" /></g></svg>