<svg width="332.6" height="219.213" xmlns="http://www.w3.org/2000/svg" xmlns:svg="http://www.w3.org/2000/svg">
 <clipPath id="a">
  <path id="svg_1" d="m0,164.41l249.45,0l0,-164.41l-249.45,0l0,164.41z"/>
 </clipPath>
 <g class="layer">
  <title>Layer 1</title>
  <g id="svg_2" transform="matrix(1.33333 0 0 -1.33333 0 219.213)" fill="#1d1d1b" clip-path="url(#a)">
   <path id="svg_3" d="m49.021,95.484l-8.561,0l0,-17.839l8.561,0l0,17.839zm7.063,-19.485c0,-2.913 -1.426,-4.37 -4.279,-4.37l-11.345,0l0,-16.971l-7.003,0l0,46.842l18.348,0c2.853,0 4.279,-1.437 4.279,-4.31l0,-21.191zm96.512,19.191l-8.56,0l0,-17.838l8.56,0l0,17.838zm7.063,-19.485c0,-2.913 -1.427,-4.37 -4.279,-4.37l-11.344,0l0,-16.971l-7.004,0l0,46.842l18.348,0c2.852,0 4.279,-1.437 4.279,-4.31l0,-21.191zm-88.304,-13.852l0,8.111l-6.555,0l0,-8.35l6.555,0.239zm6.495,-5.447l-6.555,0l0,1.048l-4.669,-0.719c-2.035,-0.299 -3.582,-0.449 -4.639,-0.449c-2.494,0 -3.741,1.227 -3.741,3.681l0,10.895c0,2.495 1.286,3.742 3.86,3.742l9.249,0l0,6.943l-6.555,0l0,-4.309l-6.195,0l0,5.657c0,2.494 1.287,3.741 3.861,3.741l11.583,0c2.534,0 3.801,-1.247 3.801,-3.74l0,-26.49zm38.252,0l-6.794,0l0,24.514l-6.435,-0.12l0,-24.394l-6.825,0l0,24.514l-6.435,-0.12l0,-24.394l-6.853,0l0,30.23l6.854,0l0,-1.106l4.76,0.778c1.935,0.3 3.541,0.45 4.818,0.45c1.576,0 2.594,-0.45 3.053,-1.348c1.676,0.26 3.352,0.53 5.028,0.808c2.215,0.36 3.911,0.54 5.088,0.54c2.495,0 3.742,-1.228 3.742,-3.683l-0.001,-26.669zm58.828,5.24l0,8.111l-6.556,0l0,-8.35l6.556,0.239zm6.495,-5.447l-6.556,0l0,1.048l-4.668,-0.719c-2.036,-0.299 -3.583,-0.449 -4.64,-0.449c-2.494,0 -3.741,1.227 -3.741,3.681l0,10.896c0,2.494 1.287,3.741 3.86,3.741l9.25,0l0,6.943l-6.556,0l0,-4.309l-6.195,0l0,5.657c0,2.494 1.287,3.741 3.86,3.741l11.584,0c2.535,0 3.802,-1.247 3.802,-3.74l0,-26.49zm38.251,0.001l-6.794,0l0,24.513l-6.435,-0.12l0,-24.393l-6.825,0l0,24.514l-6.434,-0.12l0,-24.394l-6.855,0l0,30.23l6.855,0l0,-1.107l4.759,0.778c1.935,0.3 3.542,0.45 4.818,0.45c1.577,0 2.595,-0.45 3.054,-1.348c1.675,0.26 3.35,0.53 5.028,0.808c2.215,0.36 3.91,0.54 5.088,0.54c2.494,0 3.74,-1.228 3.74,-3.683l0.001,-26.668zm-148.89,45.941c0.172,0 0.38,0.026 0.622,0.079c0.622,0.138 0.967,0.441 1.036,0.906l0.13,0.829c0.31,1.607 0.466,2.747 0.466,3.421c0,0.293 -0.035,0.44 -0.103,0.44c-0.155,0 -0.735,-1.009 -1.736,-3.031c-0.623,-1.295 -0.934,-2.108 -0.934,-2.436c0,-0.138 0.174,-0.208 0.52,-0.208m4.585,-9.845c-0.38,0 -0.743,0.173 -1.088,0.518c-0.57,0.622 -0.98,1.412 -1.23,2.371a23.568,23.568 0 0 0 -0.558,2.76a15.094,15.094 0 0 1 -0.324,1.593c-0.112,0.405 -0.263,0.609 -0.453,0.609c-0.812,0 -1.477,-0.086 -1.995,-0.259c-0.519,-0.173 -0.864,-0.631 -1.036,-1.373a7.972,7.972 0 0 1 -0.13,-0.959c-0.19,-1.416 -0.389,-2.193 -0.596,-2.332a0.758,0.758 0 0 0 -0.467,-0.155c-0.259,0 -0.544,0.113 -0.854,0.336c-0.587,0.397 -0.88,0.89 -0.88,1.476c0,0.278 0.063,0.588 0.193,0.934c0.13,0.345 0.194,0.605 0.194,0.778c0,0.189 -0.094,0.284 -0.285,0.284c-0.156,0 -0.484,-0.108 -0.984,-0.323c-0.502,-0.218 -0.82,-0.324 -0.96,-0.324c-0.258,0 -0.513,0.151 -0.764,0.453a1.567,1.567 0 0 0 -0.375,1.023c0,0.397 0.22,0.704 0.66,0.92c0.441,0.215 1.015,0.393 1.724,0.532c1.21,0.258 2.02,0.578 2.435,0.959l5.441,11.373c0.467,0.916 1.157,1.374 2.073,1.374c0.328,0 0.674,-0.053 1.036,-0.156c0.605,-0.207 0.908,-0.517 0.908,-0.932c0,-0.363 -0.087,-0.813 -0.26,-1.347c-1.347,-4.976 -2.02,-9.001 -2.02,-12.074c0,-3.196 0.405,-5.477 1.217,-6.84c0.173,-0.277 0.26,-0.476 0.26,-0.597c0,-0.138 -0.096,-0.276 -0.286,-0.415a1,1 0 0 0 -0.596,-0.207"/>
   <path id="svg_4" d="m80.97,93.047a0.907,0.907 0 0 0 -0.416,0.104c-0.743,0.33 -1.235,0.812 -1.477,1.451c-0.415,1.105 -0.622,2.841 -0.622,5.207c0,2.713 0.364,6.03 1.09,9.95c0.033,0.242 0.051,0.423 0.051,0.545c0,0.155 -0.07,0.232 -0.208,0.232c-0.276,0 -0.596,-0.077 -0.958,-0.232c-0.467,-0.19 -1.098,-0.286 -1.892,-0.286c-0.328,0 -0.682,0.311 -1.062,0.933c-0.155,0.26 -0.234,0.501 -0.234,0.726c0,0.432 0.347,0.691 1.037,0.778l3.342,0.44c0.398,0.051 0.665,0.32 0.804,0.802l1.761,6.168c0.191,0.673 0.527,1.01 1.011,1.01c0.155,0 0.336,-0.035 0.544,-0.104c0.674,-0.259 1.011,-0.64 1.011,-1.14c0,-0.172 -0.043,-0.38 -0.13,-0.622c-0.328,-0.88 -0.75,-2.134 -1.27,-3.757c-0.31,-0.95 -0.466,-1.494 -0.466,-1.63c0.017,-0.295 0.26,-0.442 0.725,-0.442l1.426,0.026c0.327,0 0.707,-0.026 1.14,-0.078c0.432,-0.053 0.933,-0.26 1.502,-0.623c0.571,-0.362 0.864,-0.75 0.882,-1.166c0,-0.173 -0.044,-0.354 -0.13,-0.543c-0.139,-0.26 -0.31,-0.389 -0.519,-0.389c-0.207,0 -0.44,0.07 -0.698,0.207c-0.45,0.224 -1.184,0.337 -2.203,0.337c-1.745,0 -2.678,-0.137 -2.798,-0.415a2.47,2.47 0 0 1 -0.182,-0.518a50.463,50.463 0 0 1 -1.192,-10.986c0,-1.347 0.078,-2.45 0.234,-3.317c0.103,-0.57 0.344,-1.13 0.725,-1.683c0.087,-0.12 0.13,-0.224 0.13,-0.31a0.594,0.594 0 0 0 -0.13,-0.339c-0.173,-0.207 -0.449,-0.318 -0.829,-0.336"/>
   <path id="svg_5" d="m85.762,101.676c0.45,0.31 0.881,0.854 1.295,1.633c0.622,1.14 0.933,1.847 0.933,2.125c0,0.137 -0.086,0.207 -0.259,0.207a0.344,0.344 0 0 1 -0.285,-0.131c-1.295,-2.21 -1.943,-3.403 -1.943,-3.574c0,-0.14 0.086,-0.225 0.26,-0.26m0.983,-5.441c-2.625,0 -3.938,1.218 -3.938,3.653c0,0.224 0.048,0.735 0.142,1.529c0.095,0.795 0.462,1.83 1.101,3.109c1.158,2.28 2.393,3.42 3.706,3.42c1.07,0 1.882,-0.535 2.435,-1.606c0.173,-0.33 0.26,-0.675 0.26,-1.037c0,-0.45 -0.13,-0.916 -0.389,-1.4c-1.486,-2.192 -2.885,-3.6 -4.197,-4.222c-0.467,-0.224 -0.7,-0.458 -0.7,-0.7c0,-0.104 0.017,-0.206 0.051,-0.311c0.156,-0.552 0.467,-0.828 0.934,-0.828c0.69,0 1.614,0.423 2.771,1.269c0.76,0.552 1.305,0.976 1.633,1.27c0.415,0.413 0.743,0.62 0.985,0.62c0.12,0 0.242,-0.042 0.363,-0.128a0.845,0.845 0 0 0 0.284,-0.65c0,-0.275 -0.176,-0.681 -0.53,-1.215c-0.354,-0.536 -0.934,-1.107 -1.737,-1.711c-0.804,-0.604 -1.524,-0.941 -2.163,-1.01c-0.363,-0.035 -0.7,-0.052 -1.01,-0.052"/>
   <path id="svg_6" d="m94.778,94.783c-1.313,0 -2.16,0.63 -2.539,1.893c-0.242,0.76 -0.363,1.683 -0.363,2.771c0,1.83 0.367,4.141 1.102,6.932c0.734,2.79 1.464,5.574 2.19,8.356c0.171,0.656 0.526,0.984 1.061,0.984c0.156,0 0.328,-0.034 0.518,-0.104c0.415,-0.156 0.622,-0.439 0.622,-0.854a2.68,2.68 0 0 0 -0.103,-0.675c-2.022,-7.739 -3.032,-12.99 -3.032,-15.753c0,-1.295 0.233,-1.943 0.7,-1.943c0.604,0 1.874,0.906 3.81,2.72c0.015,0 0.024,0.008 0.024,0.027c0.19,0.172 0.39,0.267 0.596,0.284a0.554,0.554 0 0 0 0.363,-0.156a0.493,0.493 0 0 0 0.182,-0.388c0,-0.173 -0.062,-0.363 -0.182,-0.57c-1.382,-2.348 -3.03,-3.524 -4.949,-3.524"/>
   <path id="svg_7" d="m101.982,106.132l-0.363,0.026c-0.484,0.103 -0.743,0.423 -0.778,0.958l0,0.518c0,0.623 0.277,1.623 0.83,3.006l0.129,0.363c0.138,0.328 0.398,0.502 0.777,0.518c0.174,0 0.346,-0.035 0.519,-0.103c0.587,-0.26 0.889,-0.57 0.907,-0.932c0,-0.38 -0.441,-1.66 -1.322,-3.836c-0.155,-0.345 -0.388,-0.518 -0.7,-0.518m-0.828,-10.44l-0.078,0c-0.881,0 -1.356,0.595 -1.426,1.785a29.656,29.656 0 0 0 -0.051,1.712c0,2.088 0.208,4.023 0.622,5.803c0.12,0.501 0.45,0.751 0.985,0.751c0.932,0 1.399,-0.372 1.399,-1.113c0,-0.208 -0.018,-0.399 -0.052,-0.57a45.334,45.334 0 0 1 -0.803,-6.686c0,-0.19 0.02,-0.362 0.064,-0.517c0.044,-0.157 0.065,-0.32 0.065,-0.494c0,-0.137 -0.013,-0.275 -0.04,-0.414c-0.025,-0.137 -0.253,-0.224 -0.685,-0.258m5.337,5.985c0.449,0.31 0.88,0.854 1.296,1.633c0.62,1.14 0.933,1.847 0.933,2.125c0,0.137 -0.087,0.207 -0.26,0.207a0.342,0.342 0 0 1 -0.284,-0.131c-1.296,-2.21 -1.944,-3.403 -1.944,-3.574c0,-0.14 0.086,-0.225 0.259,-0.26m0.985,-5.441c-2.626,0 -3.94,1.218 -3.94,3.653c0,0.224 0.049,0.735 0.144,1.529c0.095,0.795 0.46,1.83 1.1,3.109c1.158,2.28 2.393,3.42 3.706,3.42c1.07,0 1.882,-0.535 2.435,-1.606c0.174,-0.33 0.26,-0.675 0.26,-1.037c0,-0.45 -0.13,-0.916 -0.39,-1.4c-1.485,-2.192 -2.884,-3.6 -4.196,-4.222c-0.466,-0.224 -0.7,-0.458 -0.7,-0.7a0.97,0.97 0 0 1 0.052,-0.311c0.155,-0.552 0.467,-0.828 0.933,-0.828c0.69,0 1.615,0.423 2.772,1.269c0.76,0.552 1.304,0.976 1.633,1.27c0.414,0.413 0.742,0.62 0.984,0.62c0.12,0 0.242,-0.042 0.363,-0.128a0.842,0.842 0 0 0 0.285,-0.65c0,-0.275 -0.177,-0.681 -0.531,-1.215c-0.354,-0.536 -0.933,-1.107 -1.736,-1.711c-0.804,-0.604 -1.525,-0.941 -2.164,-1.01a10.551,10.551 0 0 0 -1.01,-0.052"/>
   <path id="svg_8" d="m114.185,96.39c-0.5,0 -0.933,0.165 -1.295,0.491c-0.19,0.192 -0.286,0.449 -0.286,0.778c0.397,3.523 0.778,6.435 1.14,8.733c0.087,0.483 0.346,0.725 0.777,0.725c1.055,0 1.581,-0.476 1.581,-1.426c0,-0.173 -0.043,-0.405 -0.129,-0.698a3.648,3.648 0 0 1 -0.156,-0.985c0,-0.26 0.035,-0.389 0.104,-0.389c0.052,0 0.112,0.068 0.181,0.208c0.38,0.829 1.09,1.467 2.125,1.917c0.328,0.155 0.656,0.233 0.984,0.233c0.294,0 0.536,-0.155 0.726,-0.467c0.104,-0.155 0.155,-0.294 0.155,-0.415c0,-0.207 -0.198,-0.405 -0.595,-0.596a1.499,1.499 0 0 1 -0.259,-0.155c-2.056,-1.573 -3.404,-3.818 -4.043,-6.736c-0.19,-0.811 -0.527,-1.218 -1.01,-1.218"/>
  </g>
 </g>
</svg>
