<svg fill="none" height="209" width="323" xmlns="http://www.w3.org/2000/svg"><g fill="#fff"><path d="M60.361 86.901H48.947v23.786H60.36zm9.418 25.98c0 3.884-1.902 5.827-5.706 5.827H48.947v22.628h-9.338V78.88h24.464c3.804 0 5.706 1.916 5.706 5.747zM198.46 87.293h-11.413v23.784h11.413zm9.418 25.98c0 3.884-1.903 5.827-5.706 5.827h-15.125v22.628h-9.339V79.272h24.464c3.803 0 5.706 1.916 5.706 5.747zM90.14 131.742v-10.815H81.4v11.134zm8.66 7.263h-8.74v-1.398c-2.075.322-4.15.64-6.225.959-2.714.399-4.776.599-6.186.599-3.325 0-4.988-1.636-4.988-4.908V119.73c0-3.327 1.715-4.989 5.147-4.989H90.14v-9.258H81.4v5.746h-8.26v-7.543c0-3.325 1.716-4.988 5.148-4.988h15.444c3.379 0 5.068 1.663 5.068 4.988zm51.003 0h-9.059V106.32l-8.58.16v32.525h-9.1V106.32l-8.58.16v32.525h-9.139V98.699h9.139v1.475c2.128-.345 4.244-.692 6.345-1.037 2.582-.399 4.723-.599 6.426-.599 2.101 0 3.458.6 4.07 1.796 2.235-.345 4.47-.705 6.704-1.077 2.954-.479 5.215-.719 6.784-.719 3.327 0 4.99 1.636 4.99 4.91zm78.437-6.987v-10.814h-8.742v11.133zm8.66 7.263h-8.742v-1.397c-2.073.321-4.149.64-6.224.958-2.714.399-4.777.599-6.186.599-3.326 0-4.988-1.636-4.988-4.908v-14.528c0-3.325 1.716-4.988 5.148-4.988h12.332v-9.257h-8.742v5.745h-8.26v-7.543c0-3.325 1.716-4.988 5.148-4.988h15.444c3.38 0 5.07 1.663 5.07 4.988zm51.001 0h-9.059v-32.685l-8.58.16v32.525h-9.1v-32.685l-8.578.16v32.525h-9.14V98.975h9.14v1.476c2.126-.346 4.242-.692 6.345-1.038 2.58-.398 4.723-.598 6.424-.598 2.103 0 3.46.598 4.072 1.796 2.233-.346 4.468-.706 6.704-1.078 2.953-.478 5.213-.718 6.784-.718 3.325 0 4.988 1.636 4.988 4.909zM89.381 78.025c.23 0 .507-.034.83-.105.83-.184 1.29-.588 1.381-1.208l.174-1.105c.413-2.143.62-3.663.62-4.562 0-.39-.046-.586-.136-.586-.207 0-.98 1.345-2.315 4.041-.83 1.727-1.245 2.81-1.245 3.248 0 .184.232.277.692.277zm6.115 13.127c-.506 0-.99-.23-1.45-.69-.76-.83-1.308-1.883-1.64-3.162a31.407 31.407 0 01-.744-3.68c-.14-.875-.283-1.583-.432-2.124-.15-.54-.351-.812-.604-.812-1.083 0-1.97.115-2.66.345-.692.231-1.152.842-1.382 1.831-.07.323-.128.75-.173 1.279-.253 1.888-.519 2.924-.795 3.11a1.01 1.01 0 01-.622.206c-.346 0-.726-.15-1.14-.448-.782-.53-1.174-1.187-1.174-1.968 0-.37.086-.784.259-1.246.172-.46.259-.806.259-1.037 0-.252-.126-.379-.38-.379-.208 0-.646.144-1.312.431-.67.29-1.095.432-1.28.432-.344 0-.684-.201-1.02-.604a2.09 2.09 0 01-.5-1.364c0-.53.294-.939.88-1.227.589-.286 1.354-.524 2.3-.709 1.612-.344 2.693-.77 3.246-1.279l7.255-15.164c.623-1.22 1.543-1.832 2.764-1.832.437 0 .899.071 1.381.208.807.276 1.21.69 1.21 1.243 0 .484-.115 1.084-.346 1.796-1.796 6.635-2.694 12.001-2.694 16.099 0 4.261.54 7.302 1.624 9.12.23.37.345.634.345.796 0 .184-.127.368-.38.553a1.334 1.334 0 01-.795.276"/><path d="M102.959 90.15c-.185 0-.369-.045-.553-.138-.991-.439-1.647-1.083-1.97-1.935-.553-1.473-.83-3.788-.83-6.943 0-3.617.486-8.038 1.453-13.266.045-.323.069-.564.069-.727 0-.207-.093-.31-.277-.31-.368 0-.795.103-1.277.31-.623.255-1.464.381-2.523.381-.437 0-.91-.414-1.416-1.244-.207-.346-.312-.668-.312-.968 0-.576.463-.92 1.383-1.037l4.456-.585c.53-.07.886-.427 1.072-1.07l2.348-8.225c.254-.897.702-1.345 1.348-1.345.206 0 .448.045.725.137.899.345 1.348.853 1.348 1.52 0 .23-.057.507-.173.83-.438 1.174-1.002 2.845-1.694 5.009-.414 1.268-.621 1.992-.621 2.174.023.392.345.588.967.588l1.901-.034c.436 0 .943.034 1.52.104.576.07 1.244.346 2.003.83.761.483 1.152 1.002 1.176 1.555 0 .23-.059.472-.174.724-.185.347-.414.519-.692.519-.276 0-.586-.092-.93-.276-.602-.299-1.579-.45-2.938-.45-2.326 0-3.57.183-3.73.554a3.239 3.239 0 00-.243.69 67.284 67.284 0 00-1.589 14.648c0 1.796.104 3.268.312 4.423.137.76.458 1.507.966 2.244.116.161.172.299.172.415 0 .138-.056.286-.172.45-.23.276-.598.424-1.105.448z"/><path d="M109.35 78.646c.598-.415 1.174-1.139 1.726-2.177.83-1.52 1.244-2.463 1.244-2.834 0-.182-.114-.276-.345-.276a.46.46 0 00-.38.175c-1.727 2.947-2.591 4.537-2.591 4.765 0 .186.115.3.346.347zm1.312 7.255c-3.5 0-5.251-1.624-5.251-4.871 0-.299.064-.98.189-2.039.127-1.06.616-2.44 1.468-4.145 1.544-3.041 3.191-4.561 4.942-4.561 1.426 0 2.509.714 3.246 2.142.231.439.346.9.346 1.383 0 .599-.172 1.221-.518 1.865-1.981 2.924-3.846 4.802-5.596 5.631-.622.299-.933.61-.933.932 0 .14.023.276.068.416.208.736.623 1.104 1.245 1.104.92 0 2.152-.564 3.695-1.692 1.013-.736 1.74-1.301 2.177-1.693.554-.551.991-.828 1.314-.828.16 0 .322.057.484.172.252.232.378.518.378.865 0 .368-.234.91-.708 1.621-.47.715-1.244 1.476-2.314 2.282-1.072.805-2.032 1.254-2.884 1.346-.484.047-.934.07-1.348.07z"/><path d="M121.371 87.836c-1.751 0-2.88-.84-3.385-2.524-.323-1.012-.484-2.244-.484-3.695 0-2.44.489-5.521 1.469-9.242.979-3.72 1.952-7.432 2.919-11.142.229-.874.702-1.312 1.416-1.312.208 0 .437.046.69.139.554.208.83.585.83 1.139 0 .254-.046.553-.138.9-2.696 10.318-4.042 17.32-4.042 21.004 0 1.726.31 2.59.933 2.59.805 0 2.499-1.208 5.079-3.626.021 0 .033-.011.033-.036.253-.23.519-.356.795-.38.161 0 .322.069.484.209.16.137.242.31.242.517 0 .23-.082.484-.242.76-1.843 3.13-4.042 4.699-6.599 4.699z"/><path d="M130.976 72.704l-.484-.035c-.645-.137-.991-.564-1.037-1.277V70.7c0-.83.369-2.164 1.106-4.008l.172-.484c.184-.437.531-.67 1.036-.69.232 0 .462.046.692.137.783.346 1.186.76 1.21 1.242 0 .508-.588 2.214-1.763 5.115-.207.46-.517.69-.932.69zm-1.105 13.921h-.104c-1.175 0-1.808-.795-1.902-2.381a39.843 39.843 0 01-.068-2.283c0-2.784.278-5.364.83-7.737.16-.668.6-1.002 1.313-1.002 1.243 0 1.865.496 1.865 1.484 0 .278-.024.532-.069.76a60.491 60.491 0 00-1.071 8.915c0 .255.028.483.086.69.058.209.086.426.086.658 0 .183-.017.367-.052.552-.034.183-.338.299-.914.344m7.115-7.979c.599-.415 1.175-1.139 1.728-2.177.828-1.52 1.244-2.463 1.244-2.834 0-.182-.116-.276-.345-.276a.455.455 0 00-.38.175c-1.728 2.947-2.592 4.537-2.592 4.765 0 .186.115.3.345.347zm1.314 7.255c-3.502 0-5.252-1.624-5.252-4.871 0-.299.064-.98.19-2.039.127-1.06.615-2.44 1.468-4.145 1.543-3.041 3.19-4.561 4.94-4.561 1.428 0 2.51.714 3.247 2.142.232.439.347.9.347 1.383 0 .599-.174 1.221-.519 1.865-1.981 2.924-3.847 4.802-5.596 5.631-.621.299-.933.61-.933.932 0 .14.022.276.069.416.207.736.623 1.104 1.244 1.104.921 0 2.153-.564 3.696-1.692 1.013-.736 1.739-1.301 2.177-1.693.552-.551.99-.828 1.312-.828.16 0 .323.057.484.172.254.232.38.518.38.865 0 .368-.236.91-.708 1.621-.472.715-1.244 1.476-2.314 2.282-1.072.805-2.034 1.254-2.886 1.346-.484.047-.932.07-1.346.07z"/><path d="M147.247 85.693a2.5 2.5 0 01-1.727-.654c-.255-.256-.381-.599-.381-1.038.529-4.697 1.037-8.58 1.52-11.644.116-.644.461-.966 1.036-.966 1.406 0 2.108.634 2.108 1.901 0 .23-.058.54-.172.93a4.838 4.838 0 00-.208 1.314c0 .347.046.519.138.519.07 0 .15-.091.242-.278.506-1.105 1.452-1.956 2.833-2.556.437-.206.875-.31 1.312-.31.392 0 .715.206.968.622.139.207.207.392.207.554 0 .276-.264.54-.794.794a2.031 2.031 0 00-.345.207c-2.741 2.097-4.539 5.09-5.391 8.981-.253 1.082-.702 1.624-1.346 1.624z"/></g><path d="M321.929 208.544H.669V.669h321.26z" stroke="#1d1d1b" stroke-miterlimit="10" stroke-width=".25"/></svg>