<svg height="219.213" viewBox="0 0 332.60001 219.21333" width="332.6" xmlns="http://www.w3.org/2000/svg"><clipPath id="a"><path d="M0 164.41h249.45V0H0z"/></clipPath><g clip-path="url(#a)" fill="#1d1d1b" transform="matrix(1.33333 0 0 -1.33333 0 219.213)"><path d="M49.021 95.484H40.46V77.645h8.561zm7.063-19.485c0-2.913-1.426-4.37-4.279-4.37H40.46V54.658h-7.003V101.5h18.348c2.853 0 4.279-1.437 4.279-4.31zm96.512 19.191h-8.56V77.352h8.56zm7.063-19.485c0-2.913-1.427-4.37-4.279-4.37h-11.344V54.364h-7.004v46.842h18.348c2.852 0 4.279-1.437 4.279-4.31z"/><path d="M71.355 61.853v8.111H64.8v-8.35zm6.495-5.447h-6.555v1.048l-4.669-.719c-2.035-.299-3.582-.449-4.639-.449-2.494 0-3.741 1.227-3.741 3.681v10.895c0 2.495 1.286 3.742 3.86 3.742h9.249v6.943H64.8v-4.309h-6.195v5.657c0 2.494 1.287 3.741 3.861 3.741h11.583c2.534 0 3.801-1.247 3.801-3.74z"/><path d="M116.102 56.406h-6.794V80.92l-6.435-.12V56.406h-6.825V80.92l-6.435-.12V56.406H82.76v30.23h6.854V85.53l4.76.778c1.935.3 3.541.45 4.818.45 1.576 0 2.594-.45 3.053-1.348 1.676.26 3.352.53 5.028.808 2.215.36 3.911.54 5.088.54 2.495 0 3.742-1.228 3.742-3.683z"/><path d="M174.93 61.646v8.111h-6.556v-8.35zm6.495-5.447h-6.556v1.048l-4.668-.719c-2.036-.299-3.583-.449-4.64-.449-2.494 0-3.741 1.227-3.741 3.681v10.896c0 2.494 1.287 3.741 3.86 3.741h9.25v6.943h-6.556v-4.309h-6.195v5.657c0 2.494 1.287 3.741 3.86 3.741h11.584c2.535 0 3.802-1.247 3.802-3.74z"/><path d="M219.676 56.2h-6.794v24.513l-6.435-.12V56.2h-6.825v24.514l-6.434-.12V56.2h-6.855v30.23h6.855v-1.107l4.759.778c1.935.3 3.542.45 4.818.45 1.577 0 2.595-.45 3.054-1.348 1.675.26 3.35.53 5.028.808 2.215.36 3.91.54 5.088.54 2.494 0 3.74-1.228 3.74-3.683z"/><path d="M70.786 102.141c.172 0 .38.026.622.079.622.138.967.441 1.036.906l.13.829c.31 1.607.466 2.747.466 3.421 0 .293-.035.44-.103.44-.155 0-.735-1.009-1.736-3.031-.623-1.295-.934-2.108-.934-2.436 0-.138.174-.208.52-.208m4.585-9.845c-.38 0-.743.173-1.088.518-.57.622-.98 1.412-1.23 2.371a23.568 23.568 0 0 0-.558 2.76 15.094 15.094 0 0 1-.324 1.593c-.112.405-.263.609-.453.609-.812 0-1.477-.086-1.995-.259-.519-.173-.864-.631-1.036-1.373a7.972 7.972 0 0 1-.13-.959c-.19-1.416-.389-2.193-.596-2.332a.758.758 0 0 0-.467-.155c-.259 0-.544.113-.854.336-.587.397-.88.89-.88 1.476 0 .278.063.588.193.934.13.345.194.605.194.778 0 .189-.094.284-.285.284-.156 0-.484-.108-.984-.323-.502-.218-.82-.324-.96-.324-.258 0-.513.151-.764.453a1.567 1.567 0 0 0-.375 1.023c0 .397.22.704.66.92.441.215 1.015.393 1.724.532 1.21.258 2.02.578 2.435.959l5.441 11.373c.467.916 1.157 1.374 2.073 1.374.328 0 .674-.053 1.036-.156.605-.207.908-.517.908-.932 0-.363-.087-.813-.26-1.347-1.347-4.976-2.02-9.001-2.02-12.074 0-3.196.405-5.477 1.217-6.84.173-.277.26-.476.26-.597 0-.138-.096-.276-.286-.415a1 1 0 0 0-.596-.207"/><path d="M80.97 93.047a.907.907 0 0 0-.416.104c-.743.33-1.235.812-1.477 1.451-.415 1.105-.622 2.841-.622 5.207 0 2.713.364 6.03 1.09 9.95.033.242.051.423.051.545 0 .155-.07.232-.208.232-.276 0-.596-.077-.958-.232-.467-.19-1.098-.286-1.892-.286-.328 0-.682.311-1.062.933-.155.26-.234.501-.234.726 0 .432.347.691 1.037.778l3.342.44c.398.051.665.32.804.802l1.761 6.168c.191.673.527 1.01 1.011 1.01.155 0 .336-.035.544-.104.674-.259 1.011-.64 1.011-1.14 0-.172-.043-.38-.13-.622-.328-.88-.75-2.134-1.27-3.757-.31-.95-.466-1.494-.466-1.63.017-.295.26-.442.725-.442l1.426.026c.327 0 .707-.026 1.14-.078.432-.053.933-.26 1.502-.623.571-.362.864-.75.882-1.166 0-.173-.044-.354-.13-.543-.139-.26-.31-.389-.519-.389-.207 0-.44.07-.698.207-.45.224-1.184.337-2.203.337-1.745 0-2.678-.137-2.798-.415a2.47 2.47 0 0 1-.182-.518 50.463 50.463 0 0 1-1.192-10.986c0-1.347.078-2.45.234-3.317.103-.57.344-1.13.725-1.683.087-.12.13-.224.13-.31a.594.594 0 0 0-.13-.339c-.173-.207-.449-.318-.829-.336"/><path d="M85.762 101.676c.45.31.881.854 1.295 1.633.622 1.14.933 1.847.933 2.125 0 .137-.086.207-.259.207a.344.344 0 0 1-.285-.131c-1.295-2.21-1.943-3.403-1.943-3.574 0-.14.086-.225.26-.26m.983-5.441c-2.625 0-3.938 1.218-3.938 3.653 0 .224.048.735.142 1.529.095.795.462 1.83 1.101 3.109 1.158 2.28 2.393 3.42 3.706 3.42 1.07 0 1.882-.535 2.435-1.606.173-.33.26-.675.26-1.037 0-.45-.13-.916-.389-1.4-1.486-2.192-2.885-3.6-4.197-4.222-.467-.224-.7-.458-.7-.7 0-.104.017-.206.051-.311.156-.552.467-.828.934-.828.69 0 1.614.423 2.771 1.269.76.552 1.305.976 1.633 1.27.415.413.743.62.985.62.12 0 .242-.042.363-.128a.845.845 0 0 0 .284-.65c0-.275-.176-.681-.53-1.215-.354-.536-.934-1.107-1.737-1.711-.804-.604-1.524-.941-2.163-1.01-.363-.035-.7-.052-1.01-.052"/><path d="M94.778 94.783c-1.313 0-2.16.63-2.539 1.893-.242.76-.363 1.683-.363 2.771 0 1.83.367 4.141 1.102 6.932.734 2.79 1.464 5.574 2.19 8.356.171.656.526.984 1.061.984.156 0 .328-.034.518-.104.415-.156.622-.439.622-.854a2.68 2.68 0 0 0-.103-.675c-2.022-7.739-3.032-12.99-3.032-15.753 0-1.295.233-1.943.7-1.943.604 0 1.874.906 3.81 2.72.015 0 .024.008.024.027.19.172.39.267.596.284a.554.554 0 0 0 .363-.156.493.493 0 0 0 .182-.388c0-.173-.062-.363-.182-.57-1.382-2.348-3.03-3.524-4.949-3.524"/><path d="M101.982 106.132l-.363.026c-.484.103-.743.423-.778.958v.518c0 .623.277 1.623.83 3.006l.129.363c.138.328.398.502.777.518.174 0 .346-.035.519-.103.587-.26.889-.57.907-.932 0-.38-.441-1.66-1.322-3.836-.155-.345-.388-.518-.7-.518m-.828-10.44h-.078c-.881 0-1.356.595-1.426 1.785a29.656 29.656 0 0 0-.051 1.712c0 2.088.208 4.023.622 5.803.12.501.45.751.985.751.932 0 1.399-.372 1.399-1.113 0-.208-.018-.399-.052-.57a45.334 45.334 0 0 1-.803-6.686c0-.19.02-.362.064-.517.044-.157.065-.32.065-.494 0-.137-.013-.275-.04-.414-.025-.137-.253-.224-.685-.258"/><path d="M106.49 101.676c.449.31.88.854 1.296 1.633.62 1.14.933 1.847.933 2.125 0 .137-.087.207-.26.207a.342.342 0 0 1-.284-.131c-1.296-2.21-1.944-3.403-1.944-3.574 0-.14.086-.225.259-.26m.985-5.441c-2.626 0-3.94 1.218-3.94 3.653 0 .224.049.735.144 1.529.095.795.46 1.83 1.1 3.109 1.158 2.28 2.393 3.42 3.706 3.42 1.07 0 1.882-.535 2.435-1.606.174-.33.26-.675.26-1.037 0-.45-.13-.916-.39-1.4-1.485-2.192-2.884-3.6-4.196-4.222-.466-.224-.7-.458-.7-.7 0-.104.017-.206.052-.311.155-.552.467-.828.933-.828.69 0 1.615.423 2.772 1.269.76.552 1.304.976 1.633 1.27.414.413.742.62.984.62.12 0 .242-.042.363-.128a.842.842 0 0 0 .285-.65c0-.275-.177-.681-.531-1.215-.354-.536-.933-1.107-1.736-1.711-.804-.604-1.525-.941-2.164-1.01a10.551 10.551 0 0 0-1.01-.052"/><path d="M114.185 96.39c-.5 0-.933.165-1.295.491-.19.192-.286.449-.286.778.397 3.523.778 6.435 1.14 8.733.087.483.346.725.777.725 1.055 0 1.581-.476 1.581-1.426 0-.173-.043-.405-.129-.698a3.648 3.648 0 0 1-.156-.985c0-.26.035-.389.104-.389.052 0 .112.068.181.208.38.829 1.09 1.467 2.125 1.917.328.155.656.233.984.233.294 0 .536-.155.726-.467.104-.155.155-.294.155-.415 0-.207-.198-.405-.595-.596a1.499 1.499 0 0 1-.259-.155c-2.056-1.573-3.404-3.818-4.043-6.736-.19-.811-.527-1.218-1.01-1.218"/></g><path d="M326.93 213.544H5.67V5.669h321.26z" fill="none" stroke="#1d1d1b" stroke-miterlimit="10" stroke-width=".3333325"/></svg>