<svg fill="none" height="209" width="323" xmlns="http://www.w3.org/2000/svg"><g fill="#fff"><path d="M60.361 86.901H48.947v23.786H60.36zm9.418 25.98c0 3.884-1.902 5.827-5.706 5.827H48.947v22.628h-9.338V78.88h24.464c3.804 0 5.706 1.916 5.706 5.747zM198.46 87.293h-11.413v23.784h11.413zm9.418 25.98c0 3.884-1.903 5.827-5.706 5.827h-15.125v22.628h-9.339V79.272h24.464c3.803 0 5.706 1.916 5.706 5.747zM90.14 131.742v-10.815H81.4v11.134zm8.66 7.263h-8.74v-1.398c-2.075.322-4.15.64-6.225.959-2.714.399-4.776.599-6.186.599-3.325 0-4.988-1.636-4.988-4.908V119.73c0-3.327 1.715-4.989 5.147-4.989H90.14v-9.258H81.4v5.746h-8.26v-7.543c0-3.325 1.716-4.988 5.148-4.988h15.444c3.379 0 5.068 1.663 5.068 4.988zm51.003 0h-9.059V106.32l-8.58.16v32.525h-9.1V106.32l-8.58.16v32.525h-9.139V98.699h9.139v1.475c2.128-.345 4.244-.692 6.345-1.037 2.582-.399 4.723-.599 6.426-.599 2.101 0 3.458.6 4.07 1.796 2.235-.345 4.47-.705 6.704-1.077 2.954-.479 5.215-.719 6.784-.719 3.327 0 4.99 1.636 4.99 4.91zm78.437-6.987v-10.814h-8.742v11.133zm8.66 7.263h-8.742v-1.397c-2.073.321-4.149.64-6.224.958-2.714.399-4.777.599-6.186.599-3.326 0-4.988-1.636-4.988-4.908v-14.528c0-3.325 1.716-4.988 5.148-4.988h12.332v-9.257h-8.742v5.745h-8.26v-7.543c0-3.325 1.716-4.988 5.148-4.988h15.444c3.38 0 5.07 1.663 5.07 4.988zm51.001 0h-9.059v-32.685l-8.58.16v32.525h-9.1v-32.685l-8.578.16v32.525h-9.14V98.975h9.14v1.476c2.126-.346 4.242-.692 6.345-1.038 2.58-.398 4.723-.598 6.424-.598 2.103 0 3.46.598 4.072 1.796 2.233-.346 4.468-.706 6.704-1.078 2.953-.478 5.213-.718 6.784-.718 3.325 0 4.988 1.636 4.988 4.909zM89.381 78.025c.23 0 .507-.034.83-.105.83-.184 1.29-.588 1.381-1.208l.174-1.105c.413-2.143.62-3.663.62-4.562 0-.39-.046-.586-.136-.586-.207 0-.98 1.345-2.315 4.041-.83 1.727-1.245 2.81-1.245 3.248 0 .184.232.277.692.277zm6.115 13.127c-.506 0-.99-.23-1.45-.69-.76-.83-1.308-1.883-1.64-3.162a31.407 31.407 0 1-.744-3.68 NaNc2.796 NaN 2.653 NaN 2.504 NaN-.15 NaN-.351 NaN-.604 NaN-1.083 NaN-1.97 NaN-2.66 NaN-.692 NaN-1.152 NaN-1.382 NaN-.07 NaN-.128 NaN-.173 NaN-.253 NaN-.519 NaN-.795 NaNa1.01 1.01 0 1-.622.206 NaNc-1.174 NaN-1.554 NaN-1.968 NaN-.782 NaN-1.174 NaN-1.174 NaN 0 NaN.086 NaN.259 NaN.172 NaN.259 NaN.259 NaN 0 NaN-.126 NaN-.38 NaN-.208 NaN-.646 NaN-1.312 NaN-.67 NaN-1.095 NaN-1.28 NaN-.344 NaN-.684 NaN-1.02 NaNa2.09 2.09 0 1-.5-1.364 NaNc.864 NaN 1.158 NaN 1.744 NaN.589 NaN 1.354 NaN 2.3 NaN 1.612 NaN 2.693 NaN 3.246 NaNl7.255 NaNc.623 NaN 1.543 NaN 2.764 NaN.437 NaN.899 NaN 1.381 NaN.807 NaN 1.21 NaN 1.21 NaN 0 NaN-.115 NaN-.346 NaN-1.796 NaN-2.694 NaN-2.694 NaN 0 NaN.54 NaN 1.624 NaN.23 NaN.345 NaN.345 NaN 0 NaN-.127 NaN-.38 NaNa1.334 1.334 0 1-.795.276 NaN"/><path d="M102.959 90.15c-.185 0-.369-.045-.553-.138-.991-.439-1.647-1.083-1.97-1.935-.553-1.473-.83-3.788-.83-6.943 0-3.617.486-8.038 1.453-13.266.045-.323.069-.564.069-.727 0-.207-.093-.31-.277-.31-.368 0-.795.103-1.277.31-.623.255-1.464.381-2.523.381-.437 0-.91-.414-1.416-1.244-.207-.346-.312-.668-.312-.968 0-.576.463-.92 1.383-1.037l4.456-.585c.53-.07.886-.427 1.072-1.07l2.348-8.225c.254-.897.702-1.345 1.348-1.345.206 0 .448.045.725.137.899.345 1.348.853 1.348 1.52 0 .23-.057.507-.173.83-.438 1.174-1.002 2.845-1.694 5.009-.414 1.268-.621 1.992-.621 2.174.023.392.345.588.967.588l1.901-.034c.436 0 .943.034 1.52.104.576.07 1.244.346 2.003.83.761.483 1.152 1.002 1.176 1.555 0 .23-.059.472-.174.724-.185.347-.414.519-.692.519-.276 0-.586-.092-.93-.276-.602-.299-1.579-.45-2.938-.45-2.326 0-3.57.183-3.73.554a3.239 3.239 0 0-.243.69 67.284lNaN NaNcNaN NaN NaN NaN NaN NaN NaN NaN NaN NaN NaN NaN NaN NaN NaN NaN NaN NaN NaN NaN NaN NaN NaN NaN NaN NaN NaN NaN NaN NaNz"/><path d="M109.35 78.646c.598-.415 1.174-1.139 1.726-2.177.83-1.52 1.244-2.463 1.244-2.834 0-.182-.114-.276-.345-.276a.46.46 0 0-.38.175 NaNc-2.282 NaN-3.146 NaN-3.146 NaN 0 NaN.115 NaN.346 NaNzm1.312 7.255c-3.5 0-5.251-1.624-5.251-4.871 0-.299.064-.98.189-2.039.127-1.06.616-2.44 1.468-4.145 1.544-3.041 3.191-4.561 4.942-4.561 1.426 0 2.509.714 3.246 2.142.231.439.346.9.346 1.383 0 .599-.172 1.221-.518 1.865-1.981 2.924-3.846 4.802-5.596 5.631-.622.299-.933.61-.933.932 0 .14.023.276.068.416.208.736.623 1.104 1.245 1.104.92 0 2.152-.564 3.695-1.692 1.013-.736 1.74-1.301 2.177-1.693.554-.551.991-.828 1.314-.828.16 0 .322.057.484.172.252.232.378.518.378.865 0 .368-.234.91-.708 1.621-.47.715-1.244 1.476-2.314 2.282-1.072.805-2.032 1.254-2.884 1.346-.484.047-.934.07-1.348.07z"/><path d="M121.371 87.836c-1.751 0-2.88-.84-3.385-2.524-.323-1.012-.484-2.244-.484-3.695 0-2.44.489-5.521 1.469-9.242.979-3.72 1.952-7.432 2.919-11.142.229-.874.702-1.312 1.416-1.312.208 0 .437.046.69.139.554.208.83.585.83 1.139 0 .254-.046.553-.138.9-2.696 10.318-4.042 17.32-4.042 21.004 0 1.726.31 2.59.933 2.59.805 0 2.499-1.208 5.079-3.626.021 0 .033-.011.033-.036.253-.23.519-.356.795-.38.161 0 .322.069.484.209.16.137.242.31.242.517 0 .23-.082.484-.242.76-1.843 3.13-4.042 4.699-6.599 4.699z"/><path d="M130.976 72.704l-.484-.035c-.645-.137-.991-.564-1.037-1.277V70.7c0-.83.369-2.164 1.106-4.008l.172-.484c.184-.437.531-.67 1.036-.69.232 0 .462.046.692.137.783.346 1.186.76 1.21 1.242 0 .508-.588 2.214-1.763 5.115-.207.46-.517.69-.932.69zm-1.105 13.921h-.104c-1.175 0-1.808-.795-1.902-2.381a39.843 39.843 0 1-.068-2.283 NaNc2.215 NaN 2.493 NaN 3.045 NaN.16 NaN.6 NaN 1.313 NaN 1.243 NaN 1.865 NaN 1.865 NaN 0 NaN-.024 NaN-.069 NaNa60.491 60.491 0 0-1.071 8.915 NaNc-9.986 NaN-9.958 NaN-9.9 NaN.058 NaN.086 NaN.086 NaN 0 NaN-.017 NaN-.052 NaN-.034 NaN-.338 NaN-.914 NaNm7.115 NaNc.599 NaN 1.175 NaN 1.728 NaN.828 NaN 1.244 NaN 1.244 NaN 0 NaN-.116 NaN-.345 NaNa.455.455 0 0-.38.175 NaNc-2.283 NaN-3.147 NaN-3.147 NaN 0 NaN.115 NaN.345 NaNzm1.314 NaNc-3.502 NaN-5.252 NaN-5.252 NaN 0 NaN.064 NaN.19 NaN.127 NaN.615 NaN 1.468 NaN 1.543 NaN 3.19 NaN 4.94 NaN 1.428 NaN 2.51 NaN 3.247 NaN.232 NaN.347 NaN.347 NaN 0 NaN-.174 NaN-.519 NaN-1.981 NaN-3.847 NaN-5.596 NaN-.621 NaN-.933 NaN-.933 NaN 0 NaN.022 NaN.069 NaN.207 NaN.623 NaN 1.244 NaN.921 NaN 2.153 NaN 3.696 NaN 1.013 NaN 1.739 NaN 2.177 NaN.552 NaN.99 NaN 1.312 NaN.16 NaN.323 NaN.484 NaN.254 NaN.38 NaN.38 NaN 0 NaN-.236 NaN-.708 NaN-.472 NaN-1.244 NaN-2.314 NaN-1.072 NaN-2.034 NaN-2.886 NaN-.484 NaN-.932 NaN-1.346 NaNz"/><path d="M147.247 85.693a2.5 2.5 0 1-1.727-.654 NaNc-1.328 NaN-1.454 NaN-1.454 NaN.529 NaN 1.037 NaN 1.52 NaN.116 NaN.461 NaN 1.036 NaN 1.406 NaN 2.108 NaN 2.108 NaN 0 NaN-.058 NaN-.172 NaNa4.838 4.838 0 0-.208 1.314 NaNc-1.522 NaN-1.476 NaN-1.384 NaN.07 NaN.15 NaN.242 NaN.506 NaN 1.452 NaN 2.833 NaN.437 NaN.875 NaN 1.312 NaN.392 NaN.715 NaN.968 NaN.139 NaN.207 NaN.207 NaN 0 NaN-.264 NaN-.794 NaNa2.031 2.031 0 0-.345.207 NaNc-3.293 NaN-5.091 NaN-5.943 NaN-.253 NaN-.702 NaN-1.346 NaNz"/></g><path d="M321.929 208.544H.669V.669h321.26z" stroke="#1d1d1b" stroke-miterlimit="10" stroke-width=".25"/></svg>