<svg fill="none" height="313" width="281" xmlns="http://www.w3.org/2000/svg"><g fill="#000"><path d="M141.3 267c1.4-17.9 3.5-35.8 2.1-53.8-1.7-21.9-3.3-43.8-3.8-65.7-.3-11.3.7-22.6-1.1-33.9-1.3-8.5 2.8-14.1 11.2-16.4 9.1-2.5 18.4-2.3 27.6.3 10.9 3.1 16.2 11.2 18.7 21.4 1 3.9 2.3 6.5 6.2 8.2 16.5 7.4 22.4 21.9 24.1 38.5.6 6 1.9 11.4 4 17.1 5.1 13.3 5.6 27.2-.1 40.8-1.1 2.7-2.9 5.1-2 8.5 3.7 13.2-3.9 22.9-10.4 33-.2.3-.4.5-.7.7-10.2 8.6-19 17.8-22.9 31.4-2.1 7.4-10.2 11-17.6 11.4-16.1.7-29.1-4.6-33.6-21.7-1.6-6.5-2.3-13.1-1.7-19.8zm75.3-23.9c-1-1.6-2-1.4-3-1.4-3.7-.1-7.9-.5-9-4.4-.9-3.3 3-4.7 5.2-6.7 5.2-4.5 8.4-10.1 10-16.8 3.8-16.1-.9-30.2-9.9-43.1-2.5-3.7-4.2-6 .7-8.6 2-1 3-2.7 2.7-4.9-.9-7.6-5.4-13.5-9.9-19.3-3.2-4-7.3-4.9-12.4-4.3-4 .5-6.7-.8-6.5-6.2.6-17.9-5.2-23.4-22.8-23.3-11.1.1-14.5 3.4-12.9 14.7 1.3 9.7.7 19.3 1 28.9.5 14.6 1.7 29.2 2.6 43.8.2 3.4 1.9 4.7 5.3 4.3 2-.2 4-.4 6-.2 6.3.5 11.7-.3 15.1-6.9 1.7-3.2 4.9-5.5 8.7-6.3 2-.5 4.1 0 5.2 2 .9 1.7 0 3.1-1 4.5-1.5 2.1-4.5 3-5 6.1 2.9 3.2 5.9 6.2 8.6 9.5 1.3 1.7 3.7 3.9 1.4 6.1-2.4 2.2-5 .5-7.1-1.3-1.2-1.1-2-2.6-3.1-3.9-.8-1.1-2-2.3-3.3-1.8-7.9 2.9-15.9.5-23.8.9-4.5.2-5.6 2.4-5.4 6.4.3 8 .5 16 .5 24 0 4.2 1.5 6.9 5.3 8.8 4.6 2.3 7.6 6.4 10.7 10.3 1.1 1.4 1.5 3 .3 4.6-.9 1.2-2.3 1.3-3.6 1.1-2.7-.3-5-1.5-7.2-3.1-1.9-1.5-2.8-4.8-6.6-3.8-1.3 4.9-.8 9.9-.5 14.8.2 2.7.9 5.4 0 7.9-2.4 7 .8 12.3 4.8 17.5 8.1 10.5 21.6 8.9 27.5-3 2.4-4.9 3.6-10.1 4-15.4.4-5 2.5-7.6 7.7-6.3 3.3.8 5.7.3 8.1-2.1 6.2-6.7 10.4-14.3 11.6-23.1zM132.3 209c-.9 19.7 1.8 39.2 2.4 58.8.3 9.2-1.5 18-4 26.5-4.8 16.8-23.5 23.3-39.9 14-8.1-4.6-15.6-10.5-16.1-21.3-.1-2.7-1.2-4.3-3.7-5.3-10.1-4.3-13.9-13.4-15.2-23-1.2-9.1-4-16.6-11.7-22-2.1-1.5-4-3.6-5.5-5.7-8.1-11.6-7.1-40.4 2.3-51.2 4.4-5 7.1-10.4 8.1-16.7 1.5-9.7 6.1-17.5 14-23.3 3-2.1 4.4-4.8 4.7-8.3.5-5.7 2.8-11 4.6-16.3 4.4-12.5 17.4-20.6 30.5-19.2 14.6 1.6 22.6 9.5 25 25.3 1 6.9 2.1 13.9 2.1 20.8-.3 22.4 3.6 44.6 2.4 66.9zm-11.2-28v-49.8c0-2.4-.7-4.9-3.3-5.7-4.5-1.4-4-3.9-3-7.7 1.9-7.6-1.4-12.1-9.1-13.4-4-.7-7.9-.5-11.7 1.4-12.4 6.4-18.5 23.9-12.9 36.7.8 1.8 2.3 3.7.3 5.4-1.4 1.3-3 .2-4.6-.4-7.7-3.4-10.2-2.8-14.6 4.1-3.6 5.7-6 12.1-3.1 18.7 1.4 3.1-.2 4-1.6 5.9-3.1 3.9-8.4 5.4-10.7 10.3-3.3 7.1-4.4 14.7-4.1 22.4.4 13.4 4.6 24.9 19.2 29.3 3.7 1.1 2.6 4 2.4 6.6-.8 7.8.4 15.3 3.9 22.3 3.8 7.6 5.1 8.2 13.7 6.7 4-.7 5.7.8 5.4 4.7-.1 1.3-.6 2.6-.9 3.9-2.3 12.4 9.2 23.8 21.6 21.2 5.4-1.1 9.7-4.5 10.5-9.5 1.2-7.2 2.8-14.2 4.7-21.1.7-2.6 1.5-6.5-1.4-8.3-2.8-1.8-4.5 2-6.7 3-.6.3-1.1.8-1.7 1.1-1.9.9-4 1.4-5.6-.2-1.9-2-.1-3.7 1.3-5 2.1-2.1 4.1-4.6 6.7-6 5.3-2.8 6.2-7.2 6.1-12.5-.2-14.6-.3-29.3-.2-43.9 0-4.7-1.1-8.4-5.3-11-7.5-4.5-13.9-10.3-20.3-16.1-3.2-2.9-6.5-5.7-11.5-4.1-2.6.9-5.2-.7-7.6-1.8-3.3-1.4-2.3-3.7-.3-5.4 2.7-2.2 6-2.5 9.5-2.5 2.5 0 5.1 1.9 7.7-.2 0-2.9-.1-5.9 0-8.8.1-1.8 1.3-3.2 3.1-3.5s3.3.6 4.2 2.2c1.9 3.3 2.4 6.9 2.4 10.6.1 3.1.2 5.9 2.9 8.1 4.4 3.4 8.6 7.1 14.6 12.3zM136 28.9c-.5 5.3-1.1 10.6-3.1 15.6-1.1 2.7-2.7 4.6-5.9 4.2-2.8-.4-5.8-1.3-6-4.3-.9-12.8-3.7-25.7 1.6-38.3.3-.6.6-1.2 1-1.7 1.2-2 2.6-4.1 5.4-3.8 3.1.3 4.5 2.7 4.9 5.5.7 7.6 1.4 15.3 2.1 22.8zm138.1 54.8c3 .5 5.8.9 6.7 4 .7 2.5-.6 4.5-2.2 6.2-2.1 2.2-4.8 3.4-7.6 4.5-4.6 1.8-9.5 3.2-13.6 5.9-6.1 4-11.9 2.2-17.9.5-3.1-.9-3.4-2.9-1.8-5.3.9-1.3 2.2-2.5 3.7-3.2 9.2-4.6 18.5-8.7 28.3-11.8 1.4-.6 3.1-.6 4.4-.8zM8.6 79.6c9.1 2.5 19 6 26.3 14.4 1.5 1.8 2.9 4.1 1.5 6.3-1.7 2.7-4.1.9-6.2 0-7.9-3.5-15.7-7-23.6-10.5-.6-.3-1.2-.5-1.8-.9-2.2-1.4-5-2.8-4.1-6 .8-3.2 3.8-3.2 7.9-3.3z"/><path d="M158.7 159.2c-3.4 0-3.7-1.8-2.6-4.5.1-.3.3-.7.5-.8 6.7-4 12.8-8.2 12.4-17.6-.1-2.4 5.1-2.2 5.8 1.1 1.3 5.8 4 8.3 10.1 7.8 2.3-.2 3.3 3.3 1.1 4.1-9.1 3-16.9 10.1-27.3 9.9zm-79.1 86.4c-2.3-.2-4.7-1.2-3.9-4.8.4-1.9 1.2-3.8 2.4-5.4 2.5-3.4 2.5-5.9-1.6-7.9-1.1-.6-2.1-1.6-2.8-2.7-1.1-1.7-2-3.5-.6-5.5 1.2-1.8 3.1-2.4 5.2-2.2 2.4.2 4.2 1.7 5.9 3.3 4.9 4.8 10.3 8.3 17.7 6.6 1.9-.4 4.3-.3 5.1 2 1 2.9-1.5 4.1-3.6 5.1-1.8.9-3.7 1.6-5.6 1.9-5.4.9-10.3 2.4-13.3 7.5-.9 1.5-2.4 2.3-4.9 2.1z"/></g></svg>