<svg fill="none" height="249" width="244" xmlns="http://www.w3.org/2000/svg"><path d="M104.5 133.2c-.2-3.2-2.8-5.2-4.3-7.7-1.3-2.2-4-4.3-1.8-7.1 2.5-3.1 5.9-2.7 9-.8 4.6 2.7 8.6 5.9 14.6 2.7 2.8-1.5 5.5 2.1 3.3 4.6-4.4 5.1-2.9 9.1-.1 14.1 2.2 3.9-.8 7-5.4 5.7-4.5-1.4-8.4-1.6-12.1 1.5-1.9 1.6-4.1 1.9-6.5 1.3-4-1-4.8-3-2.5-6.4 1.8-2.7 5-4.4 5.8-7.9zM50.2 79.1c-7.1-.9-11.2-5.6-10.3-11.9.8-5.1 4.9-8.6 9.5-8.1 5.9.7 11.1 6.9 10.4 12.4-.7 5.2-4.5 8.2-9.6 7.6zm139.8 74c-6.7-.1-11.9-3.8-11.6-8.2.3-5.2 5.7-9.3 12.1-9.4 5.5-.1 9.7 3.8 9.6 9.1-.1 5-4.3 8.6-10.1 8.5zM160.9 41.2c-.2 4.5-4.5 8.1-9.6 7.9-5.5-.2-9.4-3.8-9.1-8.3.3-4.9 4.9-9.5 9.7-9.5 4.5-.1 9.1 5.1 9 9.9zM33.3 173.1c-.1-5 4.1-8.9 9.6-9 4.1 0 8.2 3.9 8.5 8.1.4 5.2-2.9 9.6-7.5 9.9-5.9.4-10.5-3.5-10.6-9zm28.5 48.1c5-.1 9.8 3.6 10 7.7.2 4.6-4.7 9.5-9.6 9.5-5.3.1-9.9-3.4-9.9-7.6 0-4.5 4.9-9.5 9.5-9.6zm153.4-9.9c-4.1-.4-7-1.1-9-3.6-.8-1-1.8-2.6-1.5-3.5 1.6-4.7 5.5-7.3 9.6-9.4 3.3-1.7 6.5-.5 9 2.1 2.4 2.4 3 5.2 1.4 8.2-2.2 4.1-5.9 5.9-9.5 6.2zM15.2 98c-6.2 0-11.3-3.6-11-7.7.3-4.5 5.8-9.5 10.2-9.2 4.9.3 8.9 4.3 9 9 0 4.8-3.1 7.9-8.2 7.9zm125.2 150.6c-5-.1-8.8-3.5-8.6-7.7.3-5.5 4.7-9.8 9.6-9.4 4.4.3 8.4 4.4 8.4 8.4-.1 4.5-4.8 8.8-9.4 8.7zM88.1 8.2c0 4.4-3.8 8.3-8.2 8.3-5.5 0-10.1-3.5-10-7.6C70 4.3 73.4 1 78.2.8c5.7-.2 9.9 3 9.9 7.4zm-70 185.2c-.2 4.3-4.2 8.2-8.3 8.2-5 0-9.4-4.2-9-8.4.4-3.8 5.7-7.8 10.1-7.7 4.1.2 7.5 3.8 7.2 7.9zM234.8 59c5.2 0 9.4 3.2 9.1 6.9-.2 3.9-5.5 8-10 7.8-4.9-.2-8.8-3.8-8.5-7.8.2-3.8 4.4-6.9 9.4-6.9z" fill="#000"/></svg>